<svg xmlns="http://www.w3.org/2000/svg" version="1.1" xmlns:xlink="http://www.w3.org/1999/xlink" xmlns:svgjs="http://svgjs.dev/svgjs" width="2000" height="1999" viewBox="0 0 2000 1999"><g transform="matrix(1,0,0,1,-0.431486880466764,-0.4312711370263287)"><svg viewBox="0 0 343 343" data-background-color="#2d1b81" preserveAspectRatio="xMidYMid meet" height="1999" width="2000" xmlns="http://www.w3.org/2000/svg" xmlns:xlink="http://www.w3.org/1999/xlink"><g id="tight-bounds" transform="matrix(1,0,0,1,0.0740000000000407,0.07400000000001228)"><svg viewBox="0 0 342.85155851775386 342.85155851775386" height="342.85155851775386" width="342.85155851775386"><g><svg></svg></g><g><svg viewBox="0 0 342.85155851775386 342.85155851775386" height="342.85155851775386" width="342.85155851775386"><g><path d="M0 171.426c0-94.676 76.75-171.426 171.426-171.426 94.676 0 171.426 76.75 171.426 171.426 0 94.676-76.75 171.426-171.426 171.426-94.676 0-171.426-76.75-171.426-171.426zM171.426 340.431c93.339 0 169.005-75.666 169.005-169.005 0-93.339-75.666-169.005-169.005-169.005-93.339 0-169.005 75.666-169.005 169.005 0 93.339 75.666 169.005 169.005 169.005z" data-fill-palette-color="tertiary" fill="#ffabc7" stroke="transparent"></path><ellipse rx="164.56874808852186" ry="164.56874808852186" cx="171.42577925887693" cy="171.42577925887693" fill="#ffabc7" stroke="transparent" stroke-width="0" fill-opacity="1" data-fill-palette-color="tertiary"></ellipse></g><g transform="matrix(1,0,0,1,64.84655864529837,108.97633543958827)"><svg viewBox="0 0 213.1584412271571 124.89888763857732" height="124.89888763857732" width="213.1584412271571"><g><svg viewBox="0 0 213.1584412271571 124.89888763857732" height="124.89888763857732" width="213.1584412271571"><g transform="matrix(1,0,0,1,0,75.12505098899756)"><svg viewBox="0 0 213.1584412271571 49.773836649579756" height="49.773836649579756" width="213.1584412271571"><g id="textblocktransform"><svg viewBox="0 0 213.1584412271571 49.773836649579756" height="49.773836649579756" width="213.1584412271571" id="textblock"><g><svg viewBox="0 0 213.1584412271571 26.845629116379133" height="26.845629116379133" width="213.1584412271571"><g transform="matrix(1,0,0,1,0,0)"><svg width="213.1584412271571" viewBox="-1.4 -38.75 411.26 51.8" height="26.845629116379133" data-palette-color="#2d1b81"><path d="M21.2-33.4Q22.55-33.4 23.58-33.1 24.6-32.8 24.7-32.2L24.7-32.2Q24.7-30.95 22.7-22.55 20.7-14.15 19-7.65L19-7.65Q18.05-4.05 15.33-1.73 12.6 0.6 8.15 0.6L8.15 0.6Q4.5 0.6 2.38-0.78 0.25-2.15-0.58-4.05-1.4-5.95-1.4-7.8L-1.4-7.8Q-1.4-10.7-0.68-12.03 0.05-13.35 1.85-13.35L1.85-13.35Q3.6-13.35 4.6-12.88 5.6-12.4 5.6-11.65L5.6-11.65Q5.6-11.15 4.8-10.05L4.8-10.05Q3.95-8.9 3.95-8.4L3.95-8.4Q4-6.05 5.03-5.15 6.05-4.25 7.9-4.25L7.9-4.25Q9.2-4.25 10.43-5.3 11.65-6.35 12.4-9.15L12.4-9.15 17.25-27.9Q14-27.35 11.9-26.9L11.9-26.9Q10.9-27.25 10.38-27.98 9.85-28.7 9.85-29.7L9.85-29.7Q9.85-31.15 11.8-32L11.8-32Q15.75-32.8 17.55-33.08 19.35-33.35 21.2-33.4L21.2-33.4ZM43.55-2.6Q43.65-1.3 43.9-0.25L43.9-0.25Q43.8 0.05 43.02 0.35 42.25 0.65 41.7 0.65L41.7 0.65Q39.9 0.65 39.12 0.13 38.35-0.4 38.35-1.45L38.35-1.45Q38.35-2.45 38.55-3.45L38.55-3.45Q37.45-1.95 35.32-0.98 33.2 0 31.9 0L31.9 0Q28.55 0 26.32-1.95 24.1-3.9 24.1-8.2L24.1-8.2Q24.1-12.25 26.02-15.83 27.95-19.4 31.35-21.58 34.75-23.75 38.9-23.75L38.9-23.75Q39.7-23.75 41-23.33 42.3-22.9 43.62-21.88 44.95-20.85 45.85-19.25L45.85-19.25Q46.25-19.25 46.8-18.85 47.35-18.45 47.35-18.05L47.35-18.05Q47.35-17.6 47.2-17.15L47.2-17.15 43.55-2.6ZM41.3-16.6Q41-17.7 40.12-18.45 39.25-19.2 38.55-19.2L38.55-19.2Q36.25-19.2 34.22-17.57 32.2-15.95 30.95-13.55 29.7-11.15 29.7-9L29.7-9Q29.7-6.9 30.2-5.55 30.7-4.2 32.15-4.2L32.15-4.2Q33.4-4.2 35.02-4.95 36.65-5.7 37.92-6.98 39.2-8.25 39.6-9.65L39.6-9.65 41.3-16.6ZM55.15-2.3Q54.84-1.6 54.7-1.05L54.7-1.05Q54.25 0.1 53.9 0.63 53.55 1.15 52.8 1.15L52.8 1.15 51.4 1.2Q50.15 1.2 49.4 0.68 48.65 0.15 48.55-1.45L48.55-1.45Q48.59-1.5 49.05-2.58 49.5-3.65 49.95-5.5L49.95-5.5Q50.55-7.95 51.15-10.35 51.75-12.75 52.3-15L52.3-15Q53.05-17.95 54.5-23.83 55.95-29.7 56.75-33.15L56.75-33.15Q56.7-33.9 56.65-35.23 56.59-36.55 56.59-37.3L56.59-37.3Q56.75-37.95 57.72-38.35 58.7-38.75 59.5-38.75L59.5-38.75Q60.75-38.75 62.09-37.9 63.45-37.05 63.5-35.85L63.5-35.85 59.75-21.05Q61.09-22.6 63.02-23.23 64.95-23.85 66.59-23.85L66.59-23.85Q68.95-23.85 70.82-22.5 72.7-21.15 73.77-18.93 74.84-16.7 74.84-14.25L74.84-14.25Q74.84-10.65 73.15-7.18 71.45-3.7 68.2-1.48 64.95 0.75 60.59 0.75L60.59 0.75Q59.34 0.75 57.52-0.15 55.7-1.05 55.15-2.3L55.15-2.3ZM56.34-6.45Q57-5.3 58.3-4.4 59.59-3.5 60.65-3.5L60.65-3.5Q63-3.5 64.95-5.58 66.9-7.65 68.05-10.53 69.2-13.4 69.2-15.7L69.2-15.7Q69.2-17.3 68.34-18.35 67.5-19.4 65.84-19.4L65.84-19.4Q64.4-19.4 62.75-18.75 61.09-18.1 59.82-16.88 58.55-15.65 58.09-14.05L58.09-14.05 56.34-6.45ZM82.59-2.3Q82.29-1.6 82.14-1.05L82.14-1.05Q81.69 0.1 81.34 0.63 80.99 1.15 80.24 1.15L80.24 1.15 78.84 1.2Q77.59 1.2 76.84 0.68 76.09 0.15 75.99-1.45L75.99-1.45Q76.04-1.5 76.49-2.58 76.94-3.65 77.39-5.5L77.39-5.5Q77.99-7.95 78.59-10.35 79.19-12.75 79.74-15L79.74-15Q80.49-17.95 81.94-23.83 83.39-29.7 84.19-33.15L84.19-33.15Q84.14-33.9 84.09-35.23 84.04-36.55 84.04-37.3L84.04-37.3Q84.19-37.95 85.17-38.35 86.14-38.75 86.94-38.75L86.94-38.75Q88.19-38.75 89.54-37.9 90.89-37.05 90.94-35.85L90.94-35.85 87.19-21.05Q88.54-22.6 90.47-23.23 92.39-23.85 94.04-23.85L94.04-23.85Q96.39-23.85 98.27-22.5 100.14-21.15 101.22-18.93 102.29-16.7 102.29-14.25L102.29-14.25Q102.29-10.65 100.59-7.18 98.89-3.7 95.64-1.48 92.39 0.75 88.04 0.75L88.04 0.75Q86.79 0.75 84.97-0.15 83.14-1.05 82.59-2.3L82.59-2.3ZM83.79-6.45Q84.44-5.3 85.74-4.4 87.04-3.5 88.09-3.5L88.09-3.5Q90.44-3.5 92.39-5.58 94.34-7.65 95.49-10.53 96.64-13.4 96.64-15.7L96.64-15.7Q96.64-17.3 95.79-18.35 94.94-19.4 93.29-19.4L93.29-19.4Q91.84-19.4 90.19-18.75 88.54-18.1 87.27-16.88 85.99-15.65 85.54-14.05L85.54-14.05 83.79-6.45ZM123.54-2.6Q123.64-1.3 123.89-0.25L123.89-0.25Q123.79 0.05 123.02 0.35 122.24 0.65 121.69 0.65L121.69 0.65Q119.89 0.65 119.12 0.13 118.34-0.4 118.34-1.45L118.34-1.45Q118.34-2.45 118.54-3.45L118.54-3.45Q117.44-1.95 115.32-0.98 113.19 0 111.89 0L111.89 0Q108.54 0 106.32-1.95 104.09-3.9 104.09-8.2L104.09-8.2Q104.09-12.25 106.02-15.83 107.94-19.4 111.34-21.58 114.74-23.75 118.89-23.75L118.89-23.75Q119.69-23.75 120.99-23.33 122.29-22.9 123.62-21.88 124.94-20.85 125.84-19.25L125.84-19.25Q126.24-19.25 126.79-18.85 127.34-18.45 127.34-18.05L127.34-18.05Q127.34-17.6 127.19-17.15L127.19-17.15 123.54-2.6ZM121.29-16.6Q120.99-17.7 120.12-18.45 119.24-19.2 118.54-19.2L118.54-19.2Q116.24-19.2 114.22-17.57 112.19-15.95 110.94-13.55 109.69-11.15 109.69-9L109.69-9Q109.69-6.9 110.19-5.55 110.69-4.2 112.14-4.2L112.14-4.2Q113.39-4.2 115.02-4.95 116.64-5.7 117.92-6.98 119.19-8.25 119.59-9.65L119.59-9.65 121.29-16.6ZM135.34-1.9Q135.29-1.6 135.11-0.73 134.94 0.15 134.26 0.5 133.59 0.85 132.14 0.85L132.14 0.85Q130.49 0.85 129.74 0.5 128.99 0.15 128.99-1L128.99-1 131.39-10.55Q133.39-18.8 134.04-21.05L134.04-21.05 132.79-22.55Q132.64-22.7 132.64-22.9L132.64-22.9Q132.64-23.4 133.74-23.73 134.84-24.05 136.79-24.05L136.79-24.05Q138.54-24.05 139.14-23.08 139.74-22.1 139.89-20.55L139.89-20.55 139.54-19.25Q141.14-21.2 143.26-22.48 145.39-23.75 147.04-23.75L147.04-23.75Q149.19-23.75 150.39-23 151.59-22.25 151.59-21.05L151.59-21.05Q151.59-20 150.86-18.88 150.14-17.75 149.04-16.98 147.94-16.2 146.89-16.1L146.89-16.1Q145.89-16.1 145.54-16.35 145.19-16.6 145.19-17.1L145.19-17.1 145.49-18.75Q141.49-17.65 138.24-13.45L138.24-13.45 135.34-1.9ZM175.63-3Q175.23-1.25 174.41-0.3 173.58 0.65 171.73 0.65L171.73 0.65Q170.18 0.65 169.46 0.13 168.73-0.4 168.73-1.65L168.73-1.65Q168.73-2.2 168.88-2.7L168.88-2.7 174.98-26.9Q174.93-26.9 171.73-26.55L171.73-26.55Q167.88-26.25 166.93-26.05L166.93-26.05Q165.93-26.4 165.41-27.13 164.88-27.85 164.88-28.85L164.88-28.85Q164.88-29.65 165.46-30.38 166.03-31.1 166.83-31.45L166.83-31.45Q169.33-31.95 173.83-32.3 178.33-32.65 185.38-33.05L185.38-33.05Q188.98-33.2 190.23-33.35L190.23-33.35Q191.03-33 191.61-32.27 192.18-31.55 192.18-30.75L192.18-30.75Q192.18-29.85 191.28-29 190.38-28.15 189.23-27.8L189.23-27.8 180.48-27.35Q181.03-27.15 181.03-26L181.03-26Q181.03-25.4 180.93-25.1L180.93-25.1Q180.08-21.3 178.61-15.25 177.13-9.2 176.63-7.05L176.63-7.05Q176.33-5.8 176.08-4.8 175.83-3.8 175.63-3L175.63-3ZM199.93 1.05Q195.03 1.05 192.78-0.9 190.53-2.85 190.53-6.1L190.53-6.1Q190.53-10.85 192.91-14.9 195.28-18.95 199.26-21.33 203.23-23.7 207.83-23.7L207.83-23.7Q210.63-23.7 212.53-22.13 214.43-20.55 214.43-17.5L214.43-17.5Q214.43-15.75 213.31-14.63 212.18-13.5 210.08-12.63 207.98-11.75 203.28-10.15L203.28-10.15Q199.03-8.75 196.38-7.8L196.38-7.8Q196.18-7.05 196.18-6.25L196.18-6.25Q196.18-4.85 197.36-4.1 198.53-3.35 200.68-3.35L200.68-3.35Q202.03-3.35 203.78-3.9 205.53-4.45 205.98-5.3L205.98-5.3Q207.68-8.4 209.08-8.4L209.08-8.4Q211.13-8.4 211.86-7.63 212.58-6.85 212.63-5.9L212.63-5.9Q212.03-4.3 210.28-2.68 208.53-1.05 205.83 0 203.13 1.05 199.93 1.05L199.93 1.05ZM197.78-12.4Q202.73-14 205.93-15.38 209.13-16.75 209.13-18.1L209.13-18.1Q209.13-18.7 208.48-19.07 207.83-19.45 207.08-19.45L207.08-19.45Q205.58-19.45 203.66-18.3 201.73-17.15 200.08-15.5 198.43-13.85 197.78-12.4L197.78-12.4ZM238.33-5.9Q237.73-4.3 235.98-2.68 234.23-1.05 231.53 0 228.83 1.05 225.63 1.05L225.63 1.05Q220.73 1.05 218.38-0.98 216.03-3 216.03-6.25L216.03-6.25Q216.03-10.95 218.43-14.98 220.83-19 224.88-21.35 228.93-23.7 233.53-23.7L233.53-23.7Q236.38-23.7 238.25-22.03 240.13-20.35 240.13-17.5L240.13-17.5Q240.13-16.4 239.23-15.68 238.33-14.95 236.83-14.95L236.83-14.95Q235.63-14.95 235.2-15.5 234.78-16.05 234.78-16.95L234.78-16.95 234.83-18.1Q234.83-18.7 234.18-19.07 233.53-19.45 232.78-19.45L232.78-19.45Q231.23-19.45 228.6-17.6 225.98-15.75 224-12.73 222.03-9.7 222.03-6.25L222.03-6.25Q222.03-4.85 223.13-4.1 224.23-3.35 226.38-3.35L226.38-3.35Q227.73-3.35 229.48-3.9 231.23-4.45 231.68-5.3L231.68-5.3Q233.38-8.4 234.78-8.4L234.78-8.4Q236.83-8.4 237.55-7.63 238.28-6.85 238.33-5.9L238.33-5.9ZM249.13-16.5Q250.28-18.75 252.3-20.35 254.33-21.95 256.43-22.8 258.53-23.65 259.88-23.65L259.88-23.65Q262.48-23.65 263.63-22.68 264.78-21.7 264.78-19.6L264.78-19.6Q261.83-11.9 260.88-3L260.88-3 261.58-0.55Q260.98 0.6 259.98 1.28 258.98 1.95 256.93 1.95L256.93 1.95Q255.73 1.95 255.18 1.15 254.63 0.35 254.63-0.85L254.63-0.85Q254.63-4.2 255.6-8.22 256.58-12.25 257.88-16.45L257.88-16.45Q258.38-18.05 258.38-18.1L258.38-18.1Q258.38-18.8 257.58-18.8L257.58-18.8Q256.53-18.8 254.53-17.25 252.53-15.7 250.38-12.03 248.23-8.35 246.78-2.4L246.78-2.4Q246.73-2.15 246.53-1.35 246.33-0.55 245.63-0.2 244.93 0.15 243.48 0.15L243.48 0.15Q241.73 0.15 240.78-0.23 239.83-0.6 239.83-1.7L239.83-1.7Q246.38-27.45 247.93-33.9L247.93-33.9Q247.88-34.55 247.85-35.63 247.83-36.7 247.83-37.3L247.83-37.3Q247.98-38 248.9-38.38 249.83-38.75 250.78-38.75L250.78-38.75Q252.38-38.75 253.48-37.9 254.58-37.05 254.68-35.75L254.68-35.75 249.13-16.5ZM270.82-22.85Q270.67-23 270.67-23.2L270.67-23.2Q270.67-23.7 271.77-24.03 272.87-24.35 274.82-24.35L274.82-24.35Q276.62-24.35 277.47-23.43 278.32-22.5 278.47-21.2L278.47-21.2 277.57-17.95Q278.62-19.4 280.52-20.73 282.42-22.05 284.37-22.85 286.32-23.65 287.57-23.65L287.57-23.65Q290.22-23.65 291.42-22.68 292.62-21.7 292.62-19.6L292.62-19.6Q289.67-11.9 288.72-3L288.72-3 289.42-0.55Q288.82 0.6 287.75 1.28 286.67 1.95 284.62 1.95L284.62 1.95Q283.42 1.95 282.87 1.15 282.32 0.35 282.32-0.85L282.32-0.85Q282.32-4.2 283.3-8.22 284.27-12.25 285.57-16.45L285.57-16.45Q286.07-18.05 286.07-18.1L286.07-18.1Q286.07-18.8 285.27-18.8L285.27-18.8Q284.17-18.8 281.95-17.25 279.72-15.7 277.37-12.03 275.02-8.35 273.57-2.4L273.57-2.4Q273.47-2.1 273.32-1.3 273.17-0.5 272.52-0.18 271.87 0.15 270.42 0.15L270.42 0.15Q268.77 0.15 268-0.2 267.22-0.55 267.22-1.7L267.22-1.7Q267.37-2.4 267.67-3.4L267.67-3.4Q270.57-15.05 272.12-21.35L272.12-21.35 270.82-22.85ZM304.22 1.05Q299.82 1.05 297.37-1.95 294.92-4.95 294.92-9.6L294.92-9.6Q294.92-13.5 296.8-16.95 298.67-20.4 301.92-22.5 305.17-24.6 309.07-24.6L309.07-24.6Q312.92-24.6 315.39-22.08 317.87-19.55 317.87-14.65L317.87-14.65Q317.87-11.2 315.97-7.5 314.07-3.8 310.89-1.38 307.72 1.05 304.22 1.05L304.22 1.05ZM304.97-2.95Q306.57-2.95 308.19-4.95 309.82-6.95 310.87-10 311.92-13.05 311.92-15.95L311.92-15.95Q311.92-20.4 308.22-20.4L308.22-20.4Q306.17-20.4 304.47-18.45 302.77-16.5 301.77-13.63 300.77-10.75 300.77-8.25L300.77-8.25Q300.77-6.8 301.42-5.58 302.07-4.35 303.05-3.65 304.02-2.95 304.97-2.95L304.97-2.95ZM334.17-35.85L332.07-27.2Q326.42-3.45 325.42-0.05L325.42-0.05Q325.32 0.25 324.39 0.73 323.47 1.2 323.12 1.2L323.12 1.2Q321.72 1.2 320.42 0.5 319.12-0.2 319.02-1.75L319.02-1.75Q319.07-1.85 319.52-2.8 319.97-3.75 320.42-5.5L320.42-5.5Q321.57-9.8 323.04-15.7 324.52-21.6 325.02-23.6L325.02-23.6 327.37-33.15Q327.32-33.55 327.32-37.3L327.32-37.3Q327.47-37.95 328.44-38.35 329.42-38.75 330.22-38.75L330.22-38.75Q331.47-38.75 332.79-37.9 334.12-37.05 334.17-35.85L334.17-35.85ZM343.87 1.05Q339.46 1.05 337.01-1.95 334.56-4.95 334.56-9.6L334.56-9.6Q334.56-13.5 336.44-16.95 338.31-20.4 341.56-22.5 344.81-24.6 348.71-24.6L348.71-24.6Q352.56-24.6 355.04-22.08 357.51-19.55 357.51-14.65L357.51-14.65Q357.51-11.2 355.62-7.5 353.71-3.8 350.54-1.38 347.37 1.05 343.87 1.05L343.87 1.05ZM344.62-2.95Q346.21-2.95 347.84-4.95 349.46-6.95 350.51-10 351.56-13.05 351.56-15.95L351.56-15.95Q351.56-20.4 347.87-20.4L347.87-20.4Q345.81-20.4 344.12-18.45 342.41-16.5 341.41-13.63 340.41-10.75 340.41-8.25L340.41-8.25Q340.41-6.8 341.06-5.58 341.71-4.35 342.69-3.65 343.66-2.95 344.62-2.95L344.62-2.95ZM365.11 11.35Q362.81 11.35 360.79 10.35 358.76 9.35 357.39 7.78 356.01 6.2 355.41 4.6L355.41 4.6Q355.46 3.7 356.29 2.83 357.11 1.95 359.16 1.95L359.16 1.95Q359.81 1.95 360.29 2.45 360.76 2.95 361.36 4.05L361.36 4.05Q362.16 5.55 363.04 6.38 363.91 7.2 365.46 7.2L365.46 7.2Q367.21 7.2 368.84 5.83 370.46 4.45 371.64 2.1 372.81-0.25 373.26-3.1L373.26-3.1Q372.16-1.6 370.74-0.8 369.31 0 368.06 0L368.06 0Q364.06 0 361.74-1.78 359.41-3.55 359.41-8.1L359.41-8.1Q359.41-12.2 361.69-15.75 363.96-19.3 367.76-21.4 371.56-23.5 375.91-23.5L375.91-23.5Q378.76-23.5 380.14-22.35 381.51-21.2 381.81-19.45L381.81-19.45Q382.66-19.05 382.71-18.65L382.71-18.65Q382.71-18.5 382.51-17.6L382.51-17.6Q381.56-13.5 378.51-1.4L378.51-1.4 377.96 0.8Q376.71 5.65 373.19 8.5 369.66 11.35 365.11 11.35L365.11 11.35ZM376.41-18.35Q376.01-19.05 375.64-19.25 375.26-19.45 374.51-19.45L374.51-19.45Q372.16-19.45 369.96-17.93 367.76-16.4 366.41-13.98 365.06-11.55 365.06-9L365.06-9Q365.06-7.15 365.74-5.8 366.41-4.45 367.91-4.25L367.91-4.25Q369.91-4.6 371.69-6.05 373.46-7.5 374.11-9.8L374.11-9.8 376.41-18.35ZM398.91-2.1Q397.21-0.5 395.61 0.28 394.01 1.05 392.01 1.05L392.01 1.05Q388.71 1.05 386.93-1 385.16-3.05 385.16-6.45L385.16-6.45Q385.16-7.45 385.46-8.65L385.46-8.65 388.81-21.7Q389.11-22.8 389.88-23.33 390.66-23.85 392.41-23.85L392.41-23.85Q395.01-23.85 395.01-22.4L395.01-22.4Q395.01-21.8 394.66-20.5L394.66-20.5 391.31-7.1Q391.16-6.5 391.16-5.9L391.16-5.9Q391.16-4.85 391.71-4.2 392.26-3.55 393.46-3.55L393.46-3.55Q395.01-3.55 396.81-4.45 398.61-5.35 399.86-6.65L399.86-6.65 400.81-10.6Q401.76-14.6 403.01-19.25L403.01-19.25Q403.56-21.25 404.43-22.53 405.31-23.8 407.21-23.8L407.21-23.8Q409.86-23.8 409.86-22.2L409.86-22.2Q409.86-21.95 409.73-21.58 409.61-21.2 409.56-20.95L409.56-20.95 407.91-14.1Q405.31-3.2 404.51-0.15L404.51-0.15Q403.21 4.85 401.56 7.7 399.91 10.55 397.43 11.8 394.96 13.05 391.11 13.05L391.11 13.05Q388.66 13.05 387.08 12.35 385.51 11.65 384.78 10.65 384.06 9.65 384.06 8.8L384.06 8.8Q384.06 6.35 386.76 6.35L386.76 6.35Q387.51 6.35 387.98 6.65 388.46 6.95 388.96 7.5L388.96 7.5Q389.71 8.2 390.33 8.55 390.96 8.9 392.06 8.9L392.06 8.9Q392.91 8.9 393.96 8.2 395.01 7.5 396.01 6 397.01 4.5 397.66 2.25L397.66 2.25 398.91-2.1Z" opacity="1" transform="matrix(1,0,0,1,0,0)" fill="#2d1b81" class="wordmark-text-0" data-fill-palette-color="quaternary" id="text-0"></path></svg></g></svg></g><g transform="matrix(1,0,0,1,0,33.18323785565745)"><svg viewBox="0 0 213.1584412271571 16.590598793922304" height="16.590598793922304" width="213.1584412271571"><g transform="matrix(1,0,0,1,0,0)"><svg width="213.1584412271571" viewBox="0.15 -39.3 728.49 56.699999999999996" height="16.590598793922304" data-palette-color="#2d1b81"><path d="M18.75-1.8L18.75-1.8Q14.1 1.95 8.45 1.95L8.45 1.95Q2 1.95 0.5-1.65L0.5-1.65Q0.15-2.5 0.15-3.63 0.15-4.75 1.3-6.05L1.3-6.05Q3.1-8.1 6.3-8.1L6.3-8.1Q8.45-8.1 10.63-7.33 12.8-6.55 18.35-3.6L18.35-3.6Q20.85-6 23.35-10 25.85-14 27.68-17.73 29.5-21.45 32.13-25.85 34.75-30.25 37.35-33.15L37.35-33.15Q31.75-36.5 25.45-36.5L25.45-36.5Q22.85-36.5 20.15-35.95L20.15-35.95Q12.4-34.3 8.35-29.2L8.35-29.2Q5.85-26.1 5.85-23.3L5.85-23.3Q5.85-19.5 9.5-18.35L9.5-18.35Q10.8-18 11.75-18 12.7-18 13.88-18.3 15.05-18.6 16.2-19.7L16.2-19.7Q18.4-21.9 18.55-23.8L18.55-23.8Q18.6-24.25 19.13-24.13 19.65-24 19.55-23.35L19.55-23.35Q19.05-19.7 15.7-17.8L15.7-17.8Q13.65-16.7 11.6-16.7L11.6-16.7 9-17.15Q5.2-18.45 4-22L4-22Q3.5-23.35 3.5-24.7L3.5-24.7Q3.5-27.45 5.55-30.15L5.55-30.15Q9.95-36.05 21.15-37.7L21.15-37.7Q23.35-38 25.5-38L25.5-38Q32.45-38 38.75-34.7L38.75-34.7Q40.7-36.95 42.35-38.13 44-39.3 45-39.3L45-39.3Q45.55-39.3 45.65-39.08 45.75-38.85 45.63-38.73 45.5-38.6 45.3-38.6L45.3-38.6Q44.45-38.6 43.1-36.8 41.75-35 40.9-33.45L40.9-33.45Q46.25-29.9 49.05-24.35L49.05-24.35Q51.3-19.9 51.3-14.65L51.3-14.65Q51.3-8.15 48.2-4.3L48.2-4.3Q45.65-1.15 42 0.15L42 0.15Q37.65 1.7 33.4 1.7L33.4 1.7Q24.8 1.7 18.75-1.8ZM19.95-2.7L19.95-2.7Q25 0.3 31.8 0.3L31.8 0.3Q39.7 0.3 44.4-4.2L44.4-4.2Q48.15-7.85 48.15-14.3L48.15-14.3Q48.15-18.9 46.35-22.95L46.35-22.95Q44.1-28.1 39.7-31.55L39.7-31.55Q38.25-29.3 34.13-22.48 30-15.65 27.15-11.4 24.3-7.15 22.65-5.38 21-3.6 19.95-2.7ZM17.05-2.6L17.05-2.6Q11.2-5.4 9.65-5.95 8.1-6.5 6.63-6.5 5.15-6.5 4.28-5.4 3.4-4.3 3.4-3.43 3.4-2.55 3.8-1.75L3.8-1.75Q4.85 0.4 8.1 0.4L8.1 0.4Q12.9 0.4 17.05-2.6ZM55.83-7.7L55.83-7.7Q55.13-6 55.13-3.9L55.13-3.9Q55.13-2.5 55.76-1.68 56.38-0.85 57.53-0.85L57.53-0.85Q62.08-0.85 65.78-9.4L65.78-9.4Q66.13-10.2 66.63-10.1L66.63-10.1Q66.83-10.05 66.83-9.85 66.83-9.65 65.71-7.23 64.58-4.8 63.43-3.3L63.43-3.3Q60.88 0.2 57.13 0.2L57.13 0.2Q55.13 0.2 53.73-1.1 52.33-2.4 52.33-4.65 52.33-6.9 53.41-9.43 54.48-11.95 56.33-14.13 58.18-16.3 60.58-17.3L60.58-17.3Q61.73-17.8 62.78-17.8 63.83-17.8 64.73-17.2L64.73-17.2Q65.58-16.5 65.58-15.65L65.58-15.65Q65.58-12.65 61.98-9.9L61.98-9.9Q60.88-9.05 58.88-8.38 56.88-7.7 55.83-7.7ZM64.23-15.7L64.23-15.7Q64.23-16.7 63.43-16.7L63.43-16.7Q62.03-16.7 59.18-13.25L59.18-13.25Q57.48-11.15 56.18-8.55L56.18-8.55Q57.03-8.55 58.66-9.15 60.28-9.75 61.48-10.75L61.48-10.75Q64.23-13.1 64.23-15.7ZM79.31-17.45L79.31-17.45 79.06-16.55Q76.51-8.6 74.36-4.95L74.36-4.95Q71.21 0.35 67.76 0.35L67.76 0.35Q64.96 0.35 64.96-2.35L64.96-2.35Q64.96-4.4 66.46-8.7L66.46-8.7Q65.96-7.9 65.69-8.18 65.41-8.45 65.56-8.85L65.56-8.85 66.46-10.55Q67.41-12.5 67.41-14.45 67.41-16.4 66.61-16.75L66.61-16.75Q69.61-17.25 70.11-17.23 70.61-17.2 70.74-16.8 70.86-16.4 70.86-15.9L70.86-15.9Q70.86-12.85 69.29-8.7 67.71-4.55 67.71-3.13 67.71-1.7 68.16-1.48 68.61-1.25 69.06-1.25L69.06-1.25Q70.36-1.25 72.01-3.35 73.66-5.45 75.31-9.55L75.31-9.55Q74.61-11.15 74.61-12.38 74.61-13.6 74.91-14.55L74.91-14.55Q75.81-17.4 77.76-18.1L77.76-18.1Q78.16-18.25 78.51-18.25L78.51-18.25Q79.31-18.25 79.31-17.45ZM81.4-7.7L81.4-7.7Q80.7-6 80.7-3.9L80.7-3.9Q80.7-2.5 81.32-1.68 81.95-0.85 83.1-0.85L83.1-0.85Q87.65-0.85 91.35-9.4L91.35-9.4Q91.7-10.2 92.2-10.1L92.2-10.1Q92.4-10.05 92.4-9.85 92.4-9.65 91.27-7.23 90.15-4.8 89-3.3L89-3.3Q86.45 0.2 82.7 0.2L82.7 0.2Q80.7 0.2 79.3-1.1 77.9-2.4 77.9-4.65 77.9-6.9 78.97-9.43 80.05-11.95 81.9-14.13 83.75-16.3 86.15-17.3L86.15-17.3Q87.3-17.8 88.35-17.8 89.4-17.8 90.3-17.2L90.3-17.2Q91.15-16.5 91.15-15.65L91.15-15.65Q91.15-12.65 87.55-9.9L87.55-9.9Q86.45-9.05 84.45-8.38 82.45-7.7 81.4-7.7ZM89.8-15.7L89.8-15.7Q89.8-16.7 89-16.7L89-16.7Q87.6-16.7 84.75-13.25L84.75-13.25Q83.05-11.15 81.75-8.55L81.75-8.55Q82.6-8.55 84.22-9.15 85.85-9.75 87.05-10.75L87.05-10.75Q89.8-13.1 89.8-15.7ZM94.33-9.65Q94.28-9.45 93.88-8.28 93.48-7.1 93.2-6.03 92.93-4.95 92.93-3.88 92.93-2.8 93.43-1.88 93.93-0.95 95.03-0.95L95.03-0.95Q96.83-0.95 98.53-3.38 100.23-5.8 102.13-9.55L102.13-9.55Q102.53-10.25 102.88-10.1L102.88-10.1Q103.13-9.9 102.98-9.58 102.83-9.25 102.35-8.18 101.88-7.1 101.65-6.68 101.43-6.25 100.85-5.18 100.28-4.1 99.85-3.58 99.43-3.05 98.7-2.23 97.98-1.4 97.33-1L97.33-1Q95.58 0.1 94.03 0.1 92.48 0.1 91.63-0.58 90.78-1.25 90.6-2.02 90.43-2.8 90.43-3.4 90.43-4 90.48-4.95L90.48-4.95Q90.63-6.55 91.1-8.05 91.58-9.55 91.63-9.75L91.63-9.75Q92.78-13.9 94.9-18.8 97.03-23.7 98.5-26.18 99.98-28.65 100.83-29.55L100.83-29.55Q102.53-31.35 104.18-31.35L104.18-31.35Q105.33-31.35 105.73-29.7L105.73-29.7Q105.78-29.4 105.78-28.95L105.78-28.95Q105.78-27.25 104.58-24.65L104.58-24.65Q100.28-15.1 94.33-9.65L94.33-9.65ZM94.73-11.25Q97.28-13.85 99.78-17.8 102.28-21.75 103.45-24.53 104.63-27.3 104.63-28.3 104.63-29.3 104.28-29.3L104.28-29.3Q103.78-29.3 102.38-27.33 100.98-25.35 98.6-20.23 96.23-15.1 94.73-11.25L94.73-11.25ZM111.36-17.5L111.36-17.5Q115.01-17.5 115.01-12.9L115.01-12.9Q115.01-10.8 113.91-8.4L113.91-8.4Q112.51-5.15 109.71-2.5L109.71-2.5Q110.36-1.25 112.06-1.25L112.06-1.25Q113.41-1.25 114.61-2.6L114.61-2.6Q116.11-4.15 116.76-5.33 117.41-6.5 117.71-7.05 118.01-7.6 118.49-8.63 118.96-9.65 119.06-9.88 119.16-10.1 119.41-10.1L119.41-10.1Q119.91-10.15 119.91-9.75L119.91-9.75Q119.91-9.6 119.81-9.4L119.81-9.4 119.51-8.7Q119.21-8 119.06-7.7 118.91-7.4 118.54-6.63 118.16-5.85 117.89-5.4 117.61-4.95 117.14-4.2 116.66-3.45 116.29-3 115.91-2.55 115.36-2 114.81-1.45 114.31-1.15L114.31-1.15Q113.06-0.4 111.96-0.4L111.96-0.4Q109.91-0.4 108.76-1.7L108.76-1.7Q106.46 0 104.51 0L104.51 0Q100.86 0 100.86-4.6L100.86-4.6Q100.86-6.7 101.96-9.1L101.96-9.1Q103.46-12.6 106.19-15.05 108.91-17.5 111.36-17.5ZM111.91-15.95L111.91-15.95Q110.56-15.95 108.71-14.15 106.86-12.35 105.41-9.25L105.41-9.25Q103.66-5.65 103.66-3.35 103.66-1.05 105.41-1.05L105.41-1.05Q106.66-1.05 108.21-2.4L108.21-2.4Q107.41-3.55 107.41-4.85L107.41-4.85Q107.51-7 109.16-7L109.16-7Q109.81-7 110.24-6.55 110.66-6.1 110.66-5.73 110.66-5.35 110.56-4.95L110.56-4.95Q111.41-6.2 112.51-8.5L112.51-8.5Q113.76-11.05 113.76-13.5 113.76-15.95 111.91-15.95ZM134.09-13.6L134.09-13.6Q134.09-11.4 132.94-8.75 131.79-6.1 129.77-3.65 127.74-1.2 124.84-0.3L124.84-0.3Q123.74 0 122.32 0 120.89 0 119.19-0.9L119.19-0.9 114.44 10.95Q113.69 12.55 113.04 13.05 112.39 13.55 111.79 13.55 111.19 13.55 111.07 13.55 110.94 13.55 110.17 13.4 109.39 13.25 108.99 13.3L108.99 13.3Q110.09 12.25 114.57 3.33 119.04-5.6 119.64-8.7L119.64-8.7Q119.09-7.9 118.59-7.85L118.59-7.85Q118.29-7.85 118.59-8.43 118.89-9 119.59-10.65L119.59-10.65Q120.49-12.8 120.49-14.63 120.49-16.45 119.79-16.75L119.79-16.75Q122.79-17.25 123.29-17.23 123.79-17.2 123.92-16.8 124.04-16.4 124.04-15.9L124.04-15.9Q124.04-12.85 122.64-9.1L122.64-9.1 123.64-10.7Q125.44-13.6 126.27-14.45 127.09-15.3 128.04-16.2L128.04-16.2Q129.49-17.6 130.84-17.6L130.84-17.6Q131.24-17.6 131.59-17.5L131.59-17.5Q134.09-16.85 134.09-13.6ZM131.69-14.1L131.69-14.1Q131.69-14.9 131.37-15.58 131.04-16.25 130.34-16.25L130.34-16.25Q128.59-16.25 126.27-13 123.94-9.75 119.59-1.65L119.59-1.65Q120.24-1 121.39-1 122.54-1 124.64-2.75L124.64-2.75Q127.99-5.55 130.24-9.7L130.24-9.7Q131.69-12.4 131.69-14.1ZM159.63-16.4L159.63-16.4Q153.53-5.55 153.53-2.4L153.53-2.4Q153.53-1 154.48-1L154.48-1Q155.68-1 157.23-2.8L157.23-2.8Q159.58-5.65 161.33-9.65L161.33-9.65Q161.63-10.35 161.93-10.2 162.23-10.05 162.23-9.8 162.23-9.55 161.73-8.55 161.23-7.55 160.93-6.95 160.63-6.35 159.6-4.65 158.58-2.95 157.85-2.15 157.13-1.35 156-0.58 154.88 0.2 153.45 0.2 152.03 0.2 151.03-1.2L151.03-1.2Q150.58-1.85 150.58-2.98 150.58-4.1 151.08-5.7 151.58-7.3 153.83-10.9L153.83-10.9Q154.38-11.8 154.38-12.33 154.38-12.85 153.55-12.85 152.73-12.85 150.58-10.85 148.43-8.85 146.05-5.45 143.68-2.05 143.23 0L143.23 0Q142.38 0 141.98-0.7 141.58-1.4 141.58-1.9L141.58-1.9Q141.58-3.95 144.33-9.7L144.33-9.7Q145.23-11.6 145.28-12.28 145.33-12.95 145.1-12.98 144.88-13 144.48-12.8L144.48-12.8Q143.58-12.35 141.73-10.6L141.73-10.6Q138.23-7.4 134.83-0.85L134.83-0.85Q134.58-0.3 134.2-0.18 133.83-0.05 132.73 0 131.63 0.05 131.28 0.25L131.28 0.25Q132.18-1.5 134.43-6.3L134.43-6.3Q138.48-14.9 139.83-16.2L139.83-16.2Q140.43-16.8 141.48-16.8L141.48-16.8Q141.68-16.8 142.5-16.65 143.33-16.5 143.73-16.6L143.73-16.6Q141.88-15.6 137.68-7.2L137.68-7.2Q140.03-10.1 141.05-11 142.08-11.9 142.58-12.35 143.08-12.8 143.35-13.05 143.63-13.3 144.15-13.78 144.68-14.25 144.95-14.48 145.23-14.7 145.73-15.1 146.23-15.5 146.5-15.63 146.78-15.75 147.25-16.05 147.73-16.35 147.95-16.35 148.18-16.35 148.58-16.48 148.98-16.6 149.13-16.4L149.13-16.4Q150.13-16 150.13-15.15L150.13-15.15Q150.13-14.4 148.43-11.3 146.73-8.2 146.23-7.2L146.23-7.2Q148.43-9.95 150.43-11.73 152.43-13.5 155.15-15 157.88-16.5 159.13-16.5L159.13-16.5Q159.43-16.5 159.63-16.4ZM163.61-7.7L163.61-7.7Q162.91-6 162.91-3.9L162.91-3.9Q162.91-2.5 163.53-1.68 164.16-0.85 165.31-0.85L165.31-0.85Q169.86-0.85 173.56-9.4L173.56-9.4Q173.91-10.2 174.41-10.1L174.41-10.1Q174.61-10.05 174.61-9.85 174.61-9.65 173.48-7.23 172.36-4.8 171.21-3.3L171.21-3.3Q168.66 0.2 164.91 0.2L164.91 0.2Q162.91 0.2 161.51-1.1 160.11-2.4 160.11-4.65 160.11-6.9 161.18-9.43 162.26-11.95 164.11-14.13 165.96-16.3 168.36-17.3L168.36-17.3Q169.51-17.8 170.56-17.8 171.61-17.8 172.51-17.2L172.51-17.2Q173.36-16.5 173.36-15.65L173.36-15.65Q173.36-12.65 169.76-9.9L169.76-9.9Q168.66-9.05 166.66-8.38 164.66-7.7 163.61-7.7ZM172.01-15.7L172.01-15.7Q172.01-16.7 171.21-16.7L171.21-16.7Q169.81-16.7 166.96-13.25L166.96-13.25Q165.26-11.15 163.96-8.55L163.96-8.55Q164.81-8.55 166.43-9.15 168.06-9.75 169.26-10.75L169.26-10.75Q172.01-13.1 172.01-15.7ZM188.89-16.4L188.89-16.4Q182.74-5.6 182.74-2.3L182.74-2.3Q182.74-1 183.69-1L183.69-1Q186.24-1 190.54-9.65L190.54-9.65Q190.84-10.35 191.14-10.2 191.44-10.05 191.44-9.8 191.44-9.55 191.24-9.2L191.24-9.2Q188.59-3.85 186.77-1.83 184.94 0.2 183.12 0.2 181.29 0.2 180.34-1.2L180.34-1.2Q179.84-1.85 179.84-2.98 179.84-4.1 180.34-5.7 180.84-7.3 183.09-10.9L183.09-10.9Q183.64-11.8 183.64-12.33 183.64-12.85 182.79-12.85 181.94-12.85 179.54-10.6L179.54-10.6Q175.94-7.3 172.59-0.7L172.59-0.7Q172.29-0.2 171.92-0.08 171.54 0.05 170.44 0.1 169.34 0.15 168.99 0.35L168.99 0.35Q169.79-1.25 172.14-6.2L172.14-6.2Q176.34-14.95 177.64-16.2L177.64-16.2Q178.24-16.8 179.29-16.8L179.29-16.8Q179.49-16.8 180.32-16.65 181.14-16.5 181.54-16.6L181.54-16.6Q179.69-15.6 175.49-7.2L175.49-7.2Q177.84-10.1 179.77-11.83 181.69-13.55 184.39-15.03 187.09-16.5 188.34-16.5L188.34-16.5Q188.64-16.5 188.89-16.4ZM189.37-4L189.37-4Q189.37-8.15 193.37-17.9L193.37-17.9 190.77-17.9Q190.52-17.9 190.45-18.18 190.37-18.45 190.5-18.73 190.62-19 190.87-19L190.87-19 193.87-19Q195.67-22.95 197.22-25.6 198.77-28.25 200.07-29.18 201.37-30.1 201.95-30.1 202.52-30.1 202.77-30L202.77-30Q203.92-29.45 203.92-27.73 203.92-26 202.77-23.55 201.62-21.1 200.52-19L200.52-19 202.92-19Q203.17-19 203.25-18.73 203.32-18.45 203.2-18.18 203.07-17.9 202.82-17.9L202.82-17.9 199.92-17.9Q197.17-13.25 193.27-9.65L193.27-9.65 192.12-4.55Q191.97-3.9 191.97-3.28 191.97-2.65 192.32-2 192.67-1.35 193.42-1.35L193.42-1.35Q194.27-1.35 195.32-1.95L195.32-1.95Q197.72-3.75 200.62-9.5L200.62-9.5Q200.82-9.95 201.1-10.05 201.37-10.15 201.42-9.93 201.47-9.7 201.27-9.2L201.27-9.2Q199.62-5.75 198.67-4.3L198.67-4.3Q195.97 0.05 192.92 0.05L192.92 0.05Q191.37 0.05 190.37-1.1 189.37-2.25 189.37-4ZM196.92-19L199.42-19Q202.72-24.9 202.72-27.2L202.72-27.2Q202.72-28.2 202.37-28.2L202.37-28.2Q201.82-28.2 200.7-26.6 199.57-25 196.92-19L196.92-19ZM198.77-17.9L198.77-17.9 196.42-17.9Q195.82-16.5 193.72-11.25L193.72-11.25Q196.42-14.05 198.77-17.9ZM276.74-29.3L276.74-29.3Q279.84-29.3 279.84-30.8L279.84-30.8Q279.84-31.55 280.36-31.55 280.89-31.55 280.89-30.33 280.89-29.1 279.49-28.45 278.09-27.8 277.01-27.8 275.94-27.8 275.24-27.9L275.24-27.9Q267.89-28.85 262.64-31.1L262.64-31.1Q259.09-25.5 256.29-16.2L256.29-16.2Q255.24-12.85 253.31-8.95 251.39-5.05 249.16-2.53 246.94 0 244.04 1.6L244.04 1.6Q238.34 4.7 230.59 4.7L230.59 4.7Q224.29 4.7 218.79 1.6L218.79 1.6Q213.39-1.45 212.49-7.8L212.49-7.8Q212.39-8.65 212.39-10.33 212.39-12 213.36-15.1 214.34-18.2 217.04-19.8L217.04-19.8Q218.14-20.45 218.69-20.45L218.69-20.45Q219.59-20.45 219.49-19.6L219.49-19.6Q219.29-19.35 218.46-18.78 217.64-18.2 216.89-17.57 216.14-16.95 215.39-15.65L215.39-15.65Q214.09-13.45 214.09-10.7L214.09-10.7Q214.09-4.4 218.39-1L218.39-1Q220.69 0.9 223.54 1.9 226.39 2.9 229.24 2.9L229.24 2.9Q229.34 2.9 229.49 2.9L229.49 2.9Q239.84 2.65 246.49-4.6L246.49-4.6Q250.69-9.15 257.99-25.15L257.99-25.15Q260.49-30.65 261.19-31.6L261.19-31.6Q252.34-34.4 245.29-34.4 238.24-34.4 233.84-30.15L233.84-30.15Q230.29-26.75 230.29-23.05L230.29-23.05Q230.29-19 233.84-17.9L233.84-17.9Q235.09-17.55 236.11-17.55 237.14-17.55 238.46-17.93 239.79-18.3 241.01-19.48 242.24-20.65 242.86-21.8 243.49-22.95 243.39-23.55L243.39-23.55 243.39-23.65Q243.79-24 244.09-23.88 244.39-23.75 244.39-23.25L244.39-23.25Q243.89-19.35 240.44-17.4L240.44-17.4Q238.34-16.15 236.54-16.15 234.74-16.15 233.34-16.65L233.34-16.65Q229.24-18.1 228.14-22.2L228.14-22.2Q227.79-23.5 227.79-24.75L227.79-24.75Q227.79-27.75 229.64-30.6L229.64-30.6Q232.94-35.7 239.99-36.75L239.99-36.75Q241.59-37 243.04-37 244.49-37 246.41-36.85 248.34-36.7 251.51-35.85 254.69-35 258.01-33.88 261.34-32.75 261.99-32.55L261.99-32.55Q264.44-35.55 265.64-35.6L265.64-35.6Q265.89-35.7 266.31-35.7 266.74-35.7 266.99-35 267.24-34.3 266.64-34.1L266.64-34.1Q266.39-34.05 265.99-34.15L265.99-34.15Q265.69-34.35 264.76-33.52 263.84-32.7 263.39-32.15L263.39-32.15Q268.09-30.65 271.64-29.98 275.19-29.3 276.74-29.3ZM268.82-17.5L268.82-17.5Q272.47-17.5 272.47-12.9L272.47-12.9Q272.47-10.8 271.37-8.4L271.37-8.4Q269.97-5.15 267.17-2.5L267.17-2.5Q267.82-1.25 269.52-1.25L269.52-1.25Q270.87-1.25 272.07-2.6L272.07-2.6Q273.57-4.15 274.22-5.33 274.87-6.5 275.17-7.05 275.47-7.6 275.94-8.63 276.42-9.65 276.52-9.88 276.62-10.1 276.87-10.1L276.87-10.1Q277.37-10.15 277.37-9.75L277.37-9.75Q277.37-9.6 277.27-9.4L277.27-9.4 276.97-8.7Q276.67-8 276.52-7.7 276.37-7.4 275.99-6.63 275.62-5.85 275.34-5.4 275.07-4.95 274.59-4.2 274.12-3.45 273.74-3 273.37-2.55 272.82-2 272.27-1.45 271.77-1.15L271.77-1.15Q270.52-0.4 269.42-0.4L269.42-0.4Q267.37-0.4 266.22-1.7L266.22-1.7Q263.92 0 261.97 0L261.97 0Q258.32 0 258.32-4.6L258.32-4.6Q258.32-6.7 259.42-9.1L259.42-9.1Q260.92-12.6 263.64-15.05 266.37-17.5 268.82-17.5ZM269.37-15.95L269.37-15.95Q268.02-15.95 266.17-14.15 264.32-12.35 262.87-9.25L262.87-9.25Q261.12-5.65 261.12-3.35 261.12-1.05 262.87-1.05L262.87-1.05Q264.12-1.05 265.67-2.4L265.67-2.4Q264.87-3.55 264.87-4.85L264.87-4.85Q264.97-7 266.62-7L266.62-7Q267.27-7 267.69-6.55 268.12-6.1 268.12-5.73 268.12-5.35 268.02-4.95L268.02-4.95Q268.87-6.2 269.97-8.5L269.97-8.5Q271.22-11.05 271.22-13.5 271.22-15.95 269.37-15.95ZM273.1 15.8L273.1 15.8Q268.4 15.8 268.4 11.95L268.4 11.95Q268.4 8.75 272.75 6.2L272.75 6.2Q276.45 4.05 282.2 2.15L282.2 2.15Q284.85 1.3 286.05 0.8L286.05 0.8Q287.35-3 287.35-7.5L287.35-7.5Q287.35-8.4 287.25-8.85L287.25-8.85Q285.85-6 283.4-3L283.4-3Q280.5 0.6 277.65-0.2L277.65-0.2Q275.05-1.3 275.05-4.5L275.05-4.5Q275.05-8.8 279.35-13.95L279.35-13.95Q281.7-16.75 284.85-17.5L284.85-17.5Q285.7-17.75 286.55-17.75L286.55-17.75Q288.8-17.75 290.95-16.25L290.95-16.25Q291.75-15.6 291.75-15.15 291.75-14.7 291.45-14.28 291.15-13.85 290.83-14.18 290.5-14.5 290.4-14.8L290.4-14.8Q289.75-16.65 288.3-16.65L288.3-16.65Q285.65-16.65 282.35-12.95L282.35-12.95Q280.5-10.85 279.15-8.45L279.15-8.45Q277.5-5.45 277.5-3.83 277.5-2.2 278.5-1.65L278.5-1.65Q278.85-1.5 279.2-1.5L279.2-1.5Q280.35-1.5 282.08-3.08 283.8-4.65 285.28-7.08 286.75-9.5 287.15-10.85 287.55-12.2 288.13-12.55 288.7-12.9 289.4-12.95 290.1-13 290.35-13.2L290.35-13.2Q290.75-10.95 290.75-7.93 290.75-4.9 289.7-1.05L289.7-1.05Q292-2.7 292.98-4 293.95-5.3 294.53-6.35 295.1-7.4 295.55-8.43 296-9.45 296.15-9.75 296.3-10.05 296.65-10.13 297-10.2 297-9.8L297-9.8Q297-9.55 296.85-9.2L296.85-9.2Q294.65-4.65 293.18-2.63 291.7-0.6 289.15 0.6L289.15 0.6Q287.95 4 285.68 7.35 283.4 10.7 279.95 13.25 276.5 15.8 273.1 15.8ZM269.45 12.9L269.45 12.9Q269.45 14.8 271.9 14.8L271.9 14.8Q273.35 14.8 275.18 13.95 277 13.1 278.2 12.2L278.2 12.2Q280.25 10.55 282.7 7.3L282.7 7.3Q284.55 4.7 285.55 2.25L285.55 2.25 283.8 2.85Q276 5.55 272.8 7.65L272.8 7.65Q270.45 9.2 269.7 11.6L269.7 11.6Q269.45 12.35 269.45 12.9ZM298.43-7.7L298.43-7.7Q297.73-6 297.73-3.9L297.73-3.9Q297.73-2.5 298.36-1.68 298.98-0.85 300.13-0.85L300.13-0.85Q304.68-0.85 308.38-9.4L308.38-9.4Q308.73-10.2 309.23-10.1L309.23-10.1Q309.43-10.05 309.43-9.85 309.43-9.65 308.31-7.23 307.18-4.8 306.03-3.3L306.03-3.3Q303.48 0.2 299.73 0.2L299.73 0.2Q297.73 0.2 296.33-1.1 294.93-2.4 294.93-4.65 294.93-6.9 296.01-9.43 297.08-11.95 298.93-14.13 300.78-16.3 303.18-17.3L303.18-17.3Q304.33-17.8 305.38-17.8 306.43-17.8 307.33-17.2L307.33-17.2Q308.18-16.5 308.18-15.65L308.18-15.65Q308.18-12.65 304.58-9.9L304.58-9.9Q303.48-9.05 301.48-8.38 299.48-7.7 298.43-7.7ZM306.83-15.7L306.83-15.7Q306.83-16.7 306.03-16.7L306.03-16.7Q304.63-16.7 301.78-13.25L301.78-13.25Q300.08-11.15 298.78-8.55L298.78-8.55Q299.63-8.55 301.26-9.15 302.88-9.75 304.08-10.75L304.08-10.75Q306.83-13.1 306.83-15.7ZM307.37-4L307.37-4Q307.37-8.15 311.37-17.9L311.37-17.9 308.77-17.9Q308.52-17.9 308.44-18.18 308.37-18.45 308.49-18.73 308.62-19 308.87-19L308.87-19 311.87-19Q313.67-22.95 315.22-25.6 316.77-28.25 318.07-29.18 319.37-30.1 319.94-30.1 320.52-30.1 320.77-30L320.77-30Q321.92-29.45 321.92-27.73 321.92-26 320.77-23.55 319.62-21.1 318.52-19L318.52-19 320.92-19Q321.17-19 321.24-18.73 321.32-18.45 321.19-18.18 321.07-17.9 320.82-17.9L320.82-17.9 317.92-17.9Q315.17-13.25 311.27-9.65L311.27-9.65 310.12-4.55Q309.97-3.9 309.97-3.28 309.97-2.65 310.32-2 310.67-1.35 311.42-1.35L311.42-1.35Q312.27-1.35 313.32-1.95L313.32-1.95Q315.72-3.75 318.62-9.5L318.62-9.5Q318.82-9.95 319.09-10.05 319.37-10.15 319.42-9.93 319.47-9.7 319.27-9.2L319.27-9.2Q317.62-5.75 316.67-4.3L316.67-4.3Q313.97 0.05 310.92 0.05L310.92 0.05Q309.37 0.05 308.37-1.1 307.37-2.25 307.37-4ZM314.92-19L317.42-19Q320.72-24.9 320.72-27.2L320.72-27.2Q320.72-28.2 320.37-28.2L320.37-28.2Q319.82-28.2 318.69-26.6 317.57-25 314.92-19L314.92-19ZM316.77-17.9L316.77-17.9 314.42-17.9Q313.82-16.5 311.72-11.25L311.72-11.25Q314.42-14.05 316.77-17.9ZM327.6-2.25L327.6-2.25Q327.6-0.85 328.6-0.85L328.6-0.85Q330.95-0.85 335.25-9.65L335.25-9.65Q335.6-10.35 335.87-10.2 336.15-10.05 336.15-9.8 336.15-9.55 335.57-8.38 335-7.2 334.42-6.13 333.85-5.05 332.75-3.3L332.75-3.3Q330.45 0.2 327.85 0.2L327.85 0.2Q326.15 0.2 325.15-1.2L325.15-1.2Q324.7-1.85 324.7-2.98 324.7-4.1 325.2-5.7 325.7-7.3 327.95-10.9L327.95-10.9Q328.5-11.8 328.5-12.33 328.5-12.85 327.65-12.85 326.8-12.85 324.4-10.6L324.4-10.6Q320.8-7.3 317.4-0.7L317.4-0.7Q317.05 0.05 315.55 0.05L315.55 0.05Q314.2 0.15 313.85 0.35L313.85 0.35Q323.35-19.4 327.6-27.2L327.6-27.2Q328.55-28.95 329.27-29.65 330-30.35 331-30.35L331-30.35Q331.25-30.35 332.05-30.23 332.85-30.1 333.25-30.15L333.25-30.15Q331.75-28.6 327.87-21.58 324-14.55 320.45-7.3L320.45-7.3Q322.8-10.25 324.67-11.9 326.55-13.55 329.25-15.03 331.95-16.5 333.2-16.5L333.2-16.5Q333.5-16.5 333.75-16.4L333.75-16.4Q327.6-5.6 327.6-2.25ZM337.58-7.7L337.58-7.7Q336.88-6 336.88-3.9L336.88-3.9Q336.88-2.5 337.51-1.68 338.13-0.85 339.28-0.85L339.28-0.85Q343.83-0.85 347.53-9.4L347.53-9.4Q347.88-10.2 348.38-10.1L348.38-10.1Q348.58-10.05 348.58-9.85 348.58-9.65 347.46-7.23 346.33-4.8 345.18-3.3L345.18-3.3Q342.63 0.2 338.88 0.2L338.88 0.2Q336.88 0.2 335.48-1.1 334.08-2.4 334.08-4.65 334.08-6.9 335.16-9.43 336.23-11.95 338.08-14.13 339.93-16.3 342.33-17.3L342.33-17.3Q343.48-17.8 344.53-17.8 345.58-17.8 346.48-17.2L346.48-17.2Q347.33-16.5 347.33-15.65L347.33-15.65Q347.33-12.65 343.73-9.9L343.73-9.9Q342.63-9.05 340.63-8.38 338.63-7.7 337.58-7.7ZM345.98-15.7L345.98-15.7Q345.98-16.7 345.18-16.7L345.18-16.7Q343.78-16.7 340.93-13.25L340.93-13.25Q339.23-11.15 337.93-8.55L337.93-8.55Q338.78-8.55 340.41-9.15 342.03-9.75 343.23-10.75L343.23-10.75Q345.98-13.1 345.98-15.7ZM354.46-20.05L354.46-20.05Q354.46-17.8 351.61-15.8L351.61-15.8Q352.61-15.75 354.29-15.75 355.96-15.75 358.51-16L358.51-16Q358.61-15.85 358.61-15.2 358.61-14.55 358.01-13.28 357.41-12 356.94-11.08 356.46-10.15 356.04-9.33 355.61-8.5 355.09-7.3 354.56-6.1 354.21-5.1L354.21-5.1Q352.96-1.3 354.61-1.3L354.61-1.3Q356.71-1.3 360.81-9.65L360.81-9.65Q361.16-10.3 361.39-10.15 361.61-10 361.61-9.78 361.61-9.55 360.96-8.22 360.31-6.9 359.56-5.5 358.81-4.1 357.21-2.25L357.21-2.25Q355.31 0.05 353.56 0.05L353.56 0.05Q351.61 0.05 350.86-2.3L350.86-2.3Q350.71-2.75 350.71-3.65 350.71-4.55 351.29-6.05 351.86-7.55 353.11-9.7 354.36-11.85 354.51-12.23 354.66-12.6 354.66-12.95L354.66-12.95Q354.66-14.5 350.66-14.6L350.66-14.6 350.06-13Q346.91-4.75 344.01-1.95L344.01-1.95Q343.51-1.5 343.51-2.25L343.51-2.25Q343.51-2.4 343.61-2.6L343.61-2.6Q346.41-6.3 348.46-11.35 350.51-16.4 351.31-20.95L351.31-20.95Q351.61-22.5 352.71-22.5 353.81-22.5 354.31-21.1L354.31-21.1Q354.46-20.65 354.46-20.05ZM367.93 17.4L367.93 17.4Q365.18 17.4 365.18 14.65L365.18 14.65Q365.18 10.7 370.33-1.45L370.33-1.45Q369.73-2.45 369.73-3.1L369.73-3.1Q369.73-5.2 370.68-5.9L370.68-5.9Q371.38-6.5 371.85-6.5 372.33-6.5 372.48-6.45L372.48-6.45Q378.18-19.3 382.73-27.8L382.73-27.8Q383.63-29.6 384.58-30.45 385.53-31.3 386.98-31.3L386.98-31.3Q387.18-31.3 387.98-31.15 388.78-31 389.18-31.05L389.18-31.05Q386.83-28.85 382.58-21.35 378.33-13.85 374.53-5.3L374.53-5.3Q375.68-3.9 376.13-1.55L376.13-1.55 376.28-0.9Q376.38-0.9 376.43-0.9L376.43-0.9Q377.78-0.9 379.28-2.48 380.78-4.05 381.73-5.73 382.68-7.4 383.28-8.68 383.88-9.95 384.03-10.05 384.18-10.15 384.3-10.13 384.43-10.1 384.53-10.03 384.63-9.95 384.63-9.78 384.63-9.6 384.53-9.4L384.53-9.4Q380.38 0.05 376.38 0.05L376.38 0.05Q376.43 0.85 376.43 2.68 376.43 4.5 375.53 8.1 374.63 11.7 372.5 14.55 370.38 17.4 367.93 17.4ZM367.88 14.65L367.88 14.65Q367.88 16.1 368.68 16.1L368.68 16.1Q369.63 16.1 371.3 13.88 372.98 11.65 374.15 7.78 375.33 3.9 375.33 0.75L375.33 0.75Q375.33 0.5 375.33 0.25L375.33 0.25Q375.08 0.25 374.88 0.25L374.88 0.25Q373.43 0.25 372.43-0.55L372.43-0.55Q367.88 10.95 367.88 14.65ZM374.93-0.7L374.93-0.7 375.23-0.7Q375.08-2.85 374.03-4.15L374.03-4.15 372.93-1.65Q373.43-0.7 374.93-0.7ZM392.96-17.5L392.96-17.5Q396.61-17.5 396.61-12.9L396.61-12.9Q396.61-10.8 395.51-8.4L395.51-8.4Q394.11-5.15 391.31-2.5L391.31-2.5Q391.96-1.25 393.66-1.25L393.66-1.25Q395.01-1.25 396.21-2.6L396.21-2.6Q397.71-4.15 398.36-5.33 399.01-6.5 399.31-7.05 399.61-7.6 400.08-8.63 400.56-9.65 400.66-9.88 400.76-10.1 401.01-10.1L401.01-10.1Q401.51-10.15 401.51-9.75L401.51-9.75Q401.51-9.6 401.41-9.4L401.41-9.4 401.11-8.7Q400.81-8 400.66-7.7 400.51-7.4 400.13-6.63 399.76-5.85 399.48-5.4 399.21-4.95 398.73-4.2 398.26-3.45 397.88-3 397.51-2.55 396.96-2 396.41-1.45 395.91-1.15L395.91-1.15Q394.66-0.4 393.56-0.4L393.56-0.4Q391.51-0.4 390.36-1.7L390.36-1.7Q388.06 0 386.11 0L386.11 0Q382.46 0 382.46-4.6L382.46-4.6Q382.46-6.7 383.56-9.1L383.56-9.1Q385.06-12.6 387.78-15.05 390.51-17.5 392.96-17.5ZM393.51-15.95L393.51-15.95Q392.16-15.95 390.31-14.15 388.46-12.35 387.01-9.25L387.01-9.25Q385.26-5.65 385.26-3.35 385.26-1.05 387.01-1.05L387.01-1.05Q388.26-1.05 389.81-2.4L389.81-2.4Q389.01-3.55 389.01-4.85L389.01-4.85Q389.11-7 390.76-7L390.76-7Q391.41-7 391.83-6.55 392.26-6.1 392.26-5.73 392.26-5.35 392.16-4.95L392.16-4.95Q393.01-6.2 394.11-8.5L394.11-8.5Q395.36-11.05 395.36-13.5 395.36-15.95 393.51-15.95ZM407.39-20.05L407.39-20.05Q407.39-17.8 404.54-15.8L404.54-15.8Q405.54-15.75 407.22-15.75 408.89-15.75 411.44-16L411.44-16Q411.54-15.85 411.54-15.2 411.54-14.55 410.94-13.28 410.34-12 409.87-11.08 409.39-10.15 408.97-9.33 408.54-8.5 408.02-7.3 407.49-6.1 407.14-5.1L407.14-5.1Q405.89-1.3 407.54-1.3L407.54-1.3Q409.64-1.3 413.74-9.65L413.74-9.65Q414.09-10.3 414.32-10.15 414.54-10 414.54-9.78 414.54-9.55 413.89-8.22 413.24-6.9 412.49-5.5 411.74-4.1 410.14-2.25L410.14-2.25Q408.24 0.05 406.49 0.05L406.49 0.05Q404.54 0.05 403.79-2.3L403.79-2.3Q403.64-2.75 403.64-3.65 403.64-4.55 404.22-6.05 404.79-7.55 406.04-9.7 407.29-11.85 407.44-12.23 407.59-12.6 407.59-12.95L407.59-12.95Q407.59-14.5 403.59-14.6L403.59-14.6 402.99-13Q399.84-4.75 396.94-1.95L396.94-1.95Q396.44-1.5 396.44-2.25L396.44-2.25Q396.44-2.4 396.54-2.6L396.54-2.6Q399.34-6.3 401.39-11.35 403.44-16.4 404.24-20.95L404.24-20.95Q404.54-22.5 405.64-22.5 406.74-22.5 407.24-21.1L407.24-21.1Q407.39-20.65 407.39-20.05ZM442.01-13.55Q441.11-12.65 439.46-9.47 437.81-6.3 437.48-4.73 437.16-3.15 437.16-2.18 437.16-1.2 437.91-1.2L437.91-1.2Q438.86-1.2 440.26-2.95L440.26-2.95Q442.31-5.5 444.31-9.6L444.31-9.6Q444.51-10.05 444.76-10.1L444.76-10.1Q445.16-10.25 445.16-9.8L445.16-9.8Q445.16-9.55 445.01-9.2L445.01-9.2Q440.41 0.1 437.26 0.1L437.26 0.1Q435.81 0.1 434.91-1.3L434.91-1.3Q434.46-2.05 434.46-3.3 434.46-4.55 434.96-6.35L434.96-6.35Q430.96 0.1 428.06 0.1L428.06 0.1Q427.26 0.1 426.61-0.4L426.61-0.4Q425.11-1.45 425.11-4L425.11-4Q425.11-8.9 429.36-13.95L429.36-13.95Q431.76-16.75 435.26-17.6L435.26-17.6Q436.21-17.85 437.06-17.85L437.06-17.85Q439.36-17.85 440.96-16.25L440.96-16.25Q441.46-15.7 441.26-15.2 441.06-14.7 440.41-14.8L440.41-14.8Q439.86-16.6 438.01-16.6L438.01-16.6Q435.86-16.6 432.71-13.2L432.71-13.2Q430.91-11.2 429.36-8.5L429.36-8.5Q427.41-5.25 427.41-3.3 427.41-1.35 428.66-1.35L428.66-1.35Q431.66-1.35 436.51-10.55L436.51-10.55Q437.46-12.4 438.11-13.08 438.76-13.75 439.76-13.75L439.76-13.75Q439.96-13.75 440.78-13.6 441.61-13.45 442.01-13.55L442.01-13.55ZM506.47-9.6L506.47-9.6Q506.47-6.75 504.42-4.3L504.42-4.3Q501.52-0.8 496.67 0.75L496.67 0.75Q493.07 1.9 489.67 1.9L489.67 1.9Q488.42 1.9 487.22 1.75L487.22 1.75Q479.37 0.75 473.92-1.7L473.92-1.7Q468.97 1.95 463.47 1.95L463.47 1.95Q456.97 1.95 455.42-1.65L455.42-1.65Q455.07-2.5 455.07-3.65 455.07-4.8 456.22-6.1L456.22-6.1Q458.02-8.1 461.22-8.1L461.22-8.1Q463.32-8.1 465.02-7.5 466.72-6.9 469.22-5.55 471.72-4.2 472.92-3.6L472.92-3.6Q475.12-5.75 477.47-9.58 479.82-13.4 481.6-17.07 483.37-20.75 486.12-25.25 488.87-29.75 491.72-32.9L491.72-32.9 494.57-36.15Q490.62-36.85 485.87-36.85 481.12-36.85 475.42-35.6L475.42-35.6Q467.62-33.95 463.42-28.9L463.42-28.9Q460.87-25.85 460.87-23.1L460.87-23.1Q460.87-19.45 464.42-18.35L464.42-18.35Q465.67-18 466.62-18 467.57-18 468.82-18.35 470.07-18.7 471.25-19.83 472.42-20.95 472.95-22 473.47-23.05 473.47-23.58 473.47-24.1 473.97-24.1L473.97-24.1Q474.47-24.05 474.52-23.4L474.52-23.4 474.52-23.35Q473.97-19.7 470.62-17.8L470.62-17.8Q468.57-16.7 466.52-16.7L466.52-16.7 463.92-17.15Q458.62-19 458.62-24.05L458.62-24.05Q458.62-27.5 461.67-30.85L461.67-30.85Q466.57-36.35 476.07-37.7L476.07-37.7Q480.67-38.35 485.65-38.35 490.62-38.35 495.77-37.25L495.77-37.25Q497.17-38.45 498.22-38.85 499.27-39.25 499.45-39.25 499.62-39.25 499.67-39.2L499.67-39.2Q499.97-39.2 499.8-38.88 499.62-38.55 498.7-37.95 497.77-37.35 497.57-36.85L497.57-36.85Q504.37-35.1 507.37-31.85L507.37-31.85Q508.97-30.05 508.97-28.18 508.97-26.3 507.87-24.4L507.87-24.4Q506.42-21.9 503.17-20.63 499.92-19.35 496.62-19.2L496.62-19.2Q499.82-18.2 502.57-16.4L502.57-16.4Q506.47-13.85 506.47-9.6ZM488.97 0.5L488.97 0.5Q494.57 0.5 498.47-2.7L498.47-2.7Q502.72-6.1 502.72-10.05L502.72-10.05Q502.72-14.15 498.37-16.25L498.37-16.25Q496.77-17 494.45-17.73 492.12-18.45 490.7-18.95 489.27-19.45 489.07-19.9L489.07-19.9Q489.07-20.85 490.52-20.9L490.52-20.9Q491.47-20.9 493.42-20.75 495.37-20.6 496.77-20.63 498.17-20.65 500.15-21.63 502.12-22.6 503.52-24.15L503.52-24.15Q505.77-26.65 505.77-28.85L505.77-28.85Q505.77-33.55 496.97-35.6L496.97-35.6Q494.32-31.95 487.47-20.18 480.62-8.4 476.92-4.4L476.92-4.4 475.02-2.6Q480.67-0.25 487.17 0.4L487.17 0.4Q488.12 0.5 488.97 0.5ZM471.82-2.65L471.82-2.65Q465.97-5.45 464.42-6 462.87-6.55 461.35-6.55 459.82-6.55 458.92-5.48 458.02-4.4 458.02-3.53 458.02-2.65 458.42-1.85L458.42-1.85Q459.52 0.4 463.02 0.4L463.02 0.4Q467.77 0.4 471.82-2.65ZM511.75-7.7L511.75-7.7Q511.05-6 511.05-3.9L511.05-3.9Q511.05-2.5 511.68-1.68 512.3-0.85 513.45-0.85L513.45-0.85Q518-0.85 521.7-9.4L521.7-9.4Q522.05-10.2 522.55-10.1L522.55-10.1Q522.75-10.05 522.75-9.85 522.75-9.65 521.63-7.23 520.5-4.8 519.35-3.3L519.35-3.3Q516.8 0.2 513.05 0.2L513.05 0.2Q511.05 0.2 509.65-1.1 508.25-2.4 508.25-4.65 508.25-6.9 509.33-9.43 510.4-11.95 512.25-14.13 514.1-16.3 516.5-17.3L516.5-17.3Q517.65-17.8 518.7-17.8 519.75-17.8 520.65-17.2L520.65-17.2Q521.5-16.5 521.5-15.65L521.5-15.65Q521.5-12.65 517.9-9.9L517.9-9.9Q516.8-9.05 514.8-8.38 512.8-7.7 511.75-7.7ZM520.15-15.7L520.15-15.7Q520.15-16.7 519.35-16.7L519.35-16.7Q517.95-16.7 515.1-13.25L515.1-13.25Q513.4-11.15 512.1-8.55L512.1-8.55Q512.95-8.55 514.58-9.15 516.2-9.75 517.4-10.75L517.4-10.75Q520.15-13.1 520.15-15.7ZM520.69-4L520.69-4Q520.69-8.15 524.69-17.9L524.69-17.9 522.09-17.9Q521.84-17.9 521.76-18.18 521.69-18.45 521.81-18.73 521.94-19 522.19-19L522.19-19 525.19-19Q526.99-22.95 528.54-25.6 530.09-28.25 531.39-29.18 532.69-30.1 533.26-30.1 533.84-30.1 534.09-30L534.09-30Q535.24-29.45 535.24-27.73 535.24-26 534.09-23.55 532.94-21.1 531.84-19L531.84-19 534.24-19Q534.49-19 534.56-18.73 534.64-18.45 534.51-18.18 534.39-17.9 534.14-17.9L534.14-17.9 531.24-17.9Q528.49-13.25 524.59-9.65L524.59-9.65 523.44-4.55Q523.29-3.9 523.29-3.28 523.29-2.65 523.64-2 523.99-1.35 524.74-1.35L524.74-1.35Q525.59-1.35 526.64-1.95L526.64-1.95Q529.04-3.75 531.94-9.5L531.94-9.5Q532.14-9.95 532.41-10.05 532.69-10.15 532.74-9.93 532.79-9.7 532.59-9.2L532.59-9.2Q530.94-5.75 529.99-4.3L529.99-4.3Q527.29 0.05 524.24 0.05L524.24 0.05Q522.69 0.05 521.69-1.1 520.69-2.25 520.69-4ZM528.24-19L530.74-19Q534.04-24.9 534.04-27.2L534.04-27.2Q534.04-28.2 533.69-28.2L533.69-28.2Q533.14-28.2 532.01-26.6 530.89-25 528.24-19L528.24-19ZM530.09-17.9L530.09-17.9 527.74-17.9Q527.14-16.5 525.04-11.25L525.04-11.25Q527.74-14.05 530.09-17.9ZM530.77-4L530.77-4Q530.77-8.15 534.77-17.9L534.77-17.9 532.17-17.9Q531.92-17.9 531.84-18.18 531.77-18.45 531.89-18.73 532.02-19 532.27-19L532.27-19 535.27-19Q537.07-22.95 538.62-25.6 540.17-28.25 541.47-29.18 542.77-30.1 543.34-30.1 543.92-30.1 544.17-30L544.17-30Q545.32-29.45 545.32-27.73 545.32-26 544.17-23.55 543.02-21.1 541.92-19L541.92-19 544.32-19Q544.57-19 544.64-18.73 544.72-18.45 544.59-18.18 544.47-17.9 544.22-17.9L544.22-17.9 541.32-17.9Q538.57-13.25 534.67-9.65L534.67-9.65 533.52-4.55Q533.37-3.9 533.37-3.28 533.37-2.65 533.72-2 534.07-1.35 534.82-1.35L534.82-1.35Q535.67-1.35 536.72-1.95L536.72-1.95Q539.12-3.75 542.02-9.5L542.02-9.5Q542.22-9.95 542.49-10.05 542.77-10.15 542.82-9.93 542.87-9.7 542.67-9.2L542.67-9.2Q541.02-5.75 540.07-4.3L540.07-4.3Q537.37 0.05 534.32 0.05L534.32 0.05Q532.77 0.05 531.77-1.1 530.77-2.25 530.77-4ZM538.32-19L540.82-19Q544.12-24.9 544.12-27.2L544.12-27.2Q544.12-28.2 543.77-28.2L543.77-28.2Q543.22-28.2 542.09-26.6 540.97-25 538.32-19L538.32-19ZM540.17-17.9L540.17-17.9 537.82-17.9Q537.22-16.5 535.12-11.25L535.12-11.25Q537.82-14.05 540.17-17.9ZM544.3-7.7L544.3-7.7Q543.6-6 543.6-3.9L543.6-3.9Q543.6-2.5 544.22-1.68 544.85-0.85 546-0.85L546-0.85Q550.55-0.85 554.25-9.4L554.25-9.4Q554.6-10.2 555.1-10.1L555.1-10.1Q555.3-10.05 555.3-9.85 555.3-9.65 554.17-7.23 553.05-4.8 551.9-3.3L551.9-3.3Q549.35 0.2 545.6 0.2L545.6 0.2Q543.6 0.2 542.2-1.1 540.8-2.4 540.8-4.65 540.8-6.9 541.87-9.43 542.95-11.95 544.8-14.13 546.65-16.3 549.05-17.3L549.05-17.3Q550.2-17.8 551.25-17.8 552.3-17.8 553.2-17.2L553.2-17.2Q554.05-16.5 554.05-15.65L554.05-15.65Q554.05-12.65 550.45-9.9L550.45-9.9Q549.35-9.05 547.35-8.38 545.35-7.7 544.3-7.7ZM552.7-15.7L552.7-15.7Q552.7-16.7 551.9-16.7L551.9-16.7Q550.5-16.7 547.65-13.25L547.65-13.25Q545.95-11.15 544.65-8.55L544.65-8.55Q545.5-8.55 547.12-9.15 548.75-9.75 549.95-10.75L549.95-10.75Q552.7-13.1 552.7-15.7ZM561.18-20.05L561.18-20.05Q561.18-17.8 558.33-15.8L558.33-15.8Q559.33-15.75 561.01-15.75 562.68-15.75 565.23-16L565.23-16Q565.33-15.85 565.33-15.2 565.33-14.55 564.73-13.28 564.13-12 563.66-11.08 563.18-10.15 562.76-9.33 562.33-8.5 561.81-7.3 561.28-6.1 560.93-5.1L560.93-5.1Q559.68-1.3 561.33-1.3L561.33-1.3Q563.43-1.3 567.53-9.65L567.53-9.65Q567.88-10.3 568.11-10.15 568.33-10 568.33-9.78 568.33-9.55 567.68-8.22 567.03-6.9 566.28-5.5 565.53-4.1 563.93-2.25L563.93-2.25Q562.03 0.05 560.28 0.05L560.28 0.05Q558.33 0.05 557.58-2.3L557.58-2.3Q557.43-2.75 557.43-3.65 557.43-4.55 558.01-6.05 558.58-7.55 559.83-9.7 561.08-11.85 561.23-12.23 561.38-12.6 561.38-12.95L561.38-12.95Q561.38-14.5 557.38-14.6L557.38-14.6 556.78-13Q553.63-4.75 550.73-1.95L550.73-1.95Q550.23-1.5 550.23-2.25L550.23-2.25Q550.23-2.4 550.33-2.6L550.33-2.6Q553.13-6.3 555.18-11.35 557.23-16.4 558.03-20.95L558.03-20.95Q558.33-22.5 559.43-22.5 560.53-22.5 561.03-21.1L561.03-21.1Q561.18-20.65 561.18-20.05ZM627.9-30.5L627.9-30.5Q617.8-35.5 611.65-35.5 605.5-35.5 601.35-32L601.35-32Q597.4-28.65 597.4-24.8L597.4-24.8Q597.4-22.8 598.85-21.9L598.85-21.9Q600.8-20.8 602.55-20.8L602.55-20.8Q603.2-20.8 603.85-20.95L603.85-20.95Q606.15-21.5 607.75-22.8 609.35-24.1 609.35-24.9 609.35-25.7 609.82-26 610.3-26.3 610.3-25.8L610.3-25.8Q610.3-25.5 610.15-25.1L610.15-25.1Q609.1-21.55 605.25-20.25L605.25-20.25Q603.6-19.7 601.85-19.7 600.1-19.7 598.4-20.75L598.4-20.75Q595.2-22.55 595.2-26.25L595.2-26.25Q595.2-30.7 599.3-34.35 603.4-38 609.3-38L609.3-38Q612.2-38 615.15-37.15L615.15-37.15Q622.55-35.15 628.55-31.35L628.55-31.35Q630.1-33.05 631.75-33.05L631.75-33.05Q633.6-33.05 633.65-31.8L633.65-31.8Q633.7-31.25 633.3-31.3L633.3-31.3Q633.05-31.35 632.75-31.7L632.75-31.7Q632.35-31.85 632-31.85L632-31.85Q630.9-31.85 629.75-30.75L629.75-30.75Q633.45-28.9 638.45-27.6L638.45-27.6Q640.4-27.15 641.55-27.15 642.7-27.15 643.3-27.2L643.3-27.2Q645.5-27.45 646.15-28.85L646.15-28.85Q646.5-29.6 646.77-29.78 647.05-29.95 647.1-29.6L647.1-29.6Q647.1-29.45 647.1-29.2L647.1-29.2Q647.1-27.15 645-26.1L645-26.1Q643.7-25.45 642.55-25.45 641.4-25.45 640.05-25.68 638.7-25.9 636.55-26.6 634.4-27.3 633.05-27.9 631.7-28.5 630.4-29.15L630.4-29.15 629-29.85Q626.4-26.9 623.45-19.7L623.45-19.7Q622.5-17.3 622.35-16.95L622.35-16.95Q625.25-16.55 627.7-16.55 630.15-16.55 631.57-16.63 633-16.7 633.05-16.3L633.05-16.3Q633.1-15.2 625.6-15.2L625.6-15.2Q623.2-15.2 621.75-15.4L621.75-15.4Q618.65-6.9 615.55-2.8L615.55-2.8Q614.25-1.1 612.3 0.78 610.35 2.65 608.15 3.8L608.15 3.8Q603.2 6.5 597.1 6.5 591 6.5 586.75 3.8L586.75 3.8Q580.3-0.2 580.3-7.75L580.3-7.75Q580.3-10.3 581.15-13.2L581.15-13.2Q581.75-15.1 583.37-16.55 585-18 586.1-18.32 587.2-18.65 587.12-18.45 587.05-18.25 585.4-17.1L585.4-17.1Q582.15-14.75 581.55-11.3L581.55-11.3Q581.3-10.05 581.3-8.4 581.3-6.75 582.05-4.8L582.05-4.8Q584.1 0.5 590.55 3L590.55 3Q593.6 4.15 597.1 4.15 600.6 4.15 604.05 2.75 607.5 1.35 610.45-1.45L610.45-1.45Q616.2-6.9 619.95-15.55L619.95-15.55 616.75-15.6Q610.9-15.6 609.05-12.9L609.05-12.9Q608.6-12.35 608.32-12.63 608.05-12.9 608.25-13.35L608.25-13.35Q609.35-15.75 611.35-16.8 613.35-17.85 615.32-17.85 617.3-17.85 620.65-17.4L620.65-17.4Q622.2-21.2 624.57-25.3 626.95-29.4 627.9-30.5ZM631.33-2.9L631.33-2.9Q631.33-5.05 633.18-8.1L633.18-8.1Q632.38-8.1 632.73-8.9L632.73-8.9 633.63-10.65Q635.33-13.9 636.43-16.15L636.43-16.15Q636.93-17.2 638.38-17.2L638.38-17.2 641.43-17.2Q639.63-15.9 637.8-12.18 635.98-8.45 634.98-6.33 633.98-4.2 633.98-3.1 633.98-2 634.35-1.55 634.73-1.1 635.38-1.1L635.38-1.1Q636.33-1.1 638.03-3.1L638.03-3.1Q640.68-6.2 645.48-16.15L645.48-16.15Q646.03-17.2 647.43-17.2L647.43-17.2 650.13-17.2Q649.03-16.35 648.4-15.45 647.78-14.55 646.68-12.25L646.68-12.25Q643.68-6.25 643.33-4.3L643.33-4.3Q643.18-3.6 643.18-3L643.18-3Q643.18-1.4 644.28-1.3L644.28-1.3Q646.98-1.3 650.93-9.65L650.93-9.65Q651.23-10.35 651.53-10.2 651.83-10.05 651.83-9.8 651.83-9.55 651.38-8.65 650.93-7.75 650.5-6.9 650.08-6.05 649.2-4.58 648.33-3.1 647.58-2.25L647.58-2.25Q645.63-0.05 643.75-0.05 641.88-0.05 641.18-1.7L641.18-1.7Q640.88-2.45 640.88-3.6 640.88-4.75 641.38-6.45L641.38-6.45Q637.73-0.05 634.63-0.05L634.63-0.05Q631.93-0.05 631.48-2.3L631.48-2.3Q631.33-2.55 631.33-2.9ZM649.76-4L649.76-4Q649.76-8.15 653.76-17.9L653.76-17.9 651.16-17.9Q650.91-17.9 650.84-18.18 650.76-18.45 650.89-18.73 651.01-19 651.26-19L651.26-19 654.26-19Q656.06-22.95 657.61-25.6 659.16-28.25 660.46-29.18 661.76-30.1 662.34-30.1 662.91-30.1 663.16-30L663.16-30Q664.31-29.45 664.31-27.73 664.31-26 663.16-23.55 662.01-21.1 660.91-19L660.91-19 663.31-19Q663.56-19 663.64-18.73 663.71-18.45 663.59-18.18 663.46-17.9 663.21-17.9L663.21-17.9 660.31-17.9Q657.56-13.25 653.66-9.65L653.66-9.65 652.51-4.55Q652.36-3.9 652.36-3.28 652.36-2.65 652.71-2 653.06-1.35 653.81-1.35L653.81-1.35Q654.66-1.35 655.71-1.95L655.71-1.95Q658.11-3.75 661.01-9.5L661.01-9.5Q661.21-9.95 661.49-10.05 661.76-10.15 661.81-9.93 661.86-9.7 661.66-9.2L661.66-9.2Q660.01-5.75 659.06-4.3L659.06-4.3Q656.36 0.05 653.31 0.05L653.31 0.05Q651.76 0.05 650.76-1.1 649.76-2.25 649.76-4ZM657.31-19L659.81-19Q663.11-24.9 663.11-27.2L663.11-27.2Q663.11-28.2 662.76-28.2L662.76-28.2Q662.21-28.2 661.09-26.6 659.96-25 657.31-19L657.31-19ZM659.16-17.9L659.16-17.9 656.81-17.9Q656.21-16.5 654.11-11.25L654.11-11.25Q656.81-14.05 659.16-17.9ZM659.34-2.9L659.34-2.9Q659.34-5.05 661.19-8.1L661.19-8.1Q660.39-8.1 660.74-8.9L660.74-8.9 661.64-10.65Q663.34-13.9 664.44-16.15L664.44-16.15Q664.94-17.2 666.39-17.2L666.39-17.2 669.44-17.2Q667.64-15.9 665.82-12.18 663.99-8.45 662.99-6.33 661.99-4.2 661.99-3.1 661.99-2 662.37-1.55 662.74-1.1 663.39-1.1L663.39-1.1Q664.34-1.1 666.04-3.1L666.04-3.1Q668.69-6.2 673.49-16.15L673.49-16.15Q674.04-17.2 675.44-17.2L675.44-17.2 678.14-17.2Q677.04-16.35 676.42-15.45 675.79-14.55 674.69-12.25L674.69-12.25Q671.69-6.25 671.34-4.3L671.34-4.3Q671.19-3.6 671.19-3L671.19-3Q671.19-1.4 672.29-1.3L672.29-1.3Q674.99-1.3 678.94-9.65L678.94-9.65Q679.24-10.35 679.54-10.2 679.84-10.05 679.84-9.8 679.84-9.55 679.39-8.65 678.94-7.75 678.52-6.9 678.09-6.05 677.22-4.58 676.34-3.1 675.59-2.25L675.59-2.25Q673.64-0.05 671.77-0.05 669.89-0.05 669.19-1.7L669.19-1.7Q668.89-2.45 668.89-3.6 668.89-4.75 669.39-6.45L669.39-6.45Q665.74-0.05 662.64-0.05L662.64-0.05Q659.94-0.05 659.49-2.3L659.49-2.3Q659.34-2.55 659.34-2.9ZM685.73-20.05L685.73-20.05Q685.73-17.8 682.88-15.8L682.88-15.8Q683.88-15.75 685.55-15.75 687.23-15.75 689.78-16L689.78-16Q689.88-15.85 689.88-15.2 689.88-14.55 689.28-13.28 688.68-12 688.2-11.08 687.73-10.15 687.3-9.33 686.88-8.5 686.35-7.3 685.83-6.1 685.48-5.1L685.48-5.1Q684.23-1.3 685.88-1.3L685.88-1.3Q687.98-1.3 692.08-9.65L692.08-9.65Q692.43-10.3 692.65-10.15 692.88-10 692.88-9.78 692.88-9.55 692.23-8.22 691.58-6.9 690.83-5.5 690.08-4.1 688.48-2.25L688.48-2.25Q686.58 0.05 684.83 0.05L684.83 0.05Q682.88 0.05 682.13-2.3L682.13-2.3Q681.98-2.75 681.98-3.65 681.98-4.55 682.55-6.05 683.13-7.55 684.38-9.7 685.63-11.85 685.78-12.23 685.93-12.6 685.93-12.95L685.93-12.95Q685.93-14.5 681.93-14.6L681.93-14.6 681.33-13Q678.18-4.75 675.28-1.95L675.28-1.95Q674.78-1.5 674.78-2.25L674.78-2.25Q674.78-2.4 674.88-2.6L674.88-2.6Q677.68-6.3 679.73-11.35 681.78-16.4 682.58-20.95L682.58-20.95Q682.88-22.5 683.98-22.5 685.08-22.5 685.58-21.1L685.58-21.1Q685.73-20.65 685.73-20.05ZM694.31-7.7L694.31-7.7Q693.61-6 693.61-3.9L693.61-3.9Q693.61-2.5 694.23-1.68 694.86-0.85 696.01-0.85L696.01-0.85Q700.56-0.85 704.26-9.4L704.26-9.4Q704.61-10.2 705.11-10.1L705.11-10.1Q705.31-10.05 705.31-9.85 705.31-9.65 704.18-7.23 703.06-4.8 701.91-3.3L701.91-3.3Q699.36 0.2 695.61 0.2L695.61 0.2Q693.61 0.2 692.21-1.1 690.81-2.4 690.81-4.65 690.81-6.9 691.88-9.43 692.96-11.95 694.81-14.13 696.66-16.3 699.06-17.3L699.06-17.3Q700.21-17.8 701.26-17.8 702.31-17.8 703.21-17.2L703.21-17.2Q704.06-16.5 704.06-15.65L704.06-15.65Q704.06-12.65 700.46-9.9L700.46-9.9Q699.36-9.05 697.36-8.38 695.36-7.7 694.31-7.7ZM702.71-15.7L702.71-15.7Q702.71-16.7 701.91-16.7L701.91-16.7Q700.51-16.7 697.66-13.25L697.66-13.25Q695.96-11.15 694.66-8.55L694.66-8.55Q695.51-8.55 697.13-9.15 698.76-9.75 699.96-10.75L699.96-10.75Q702.71-13.1 702.71-15.7ZM726.74-31L726.74-31 728.29-30.95 728.54-30.85 728.64-30.55Q728.19-29.35 720.21-17.6 712.24-5.85 711.89-5.35L711.89-5.35 711.39-5.4 711.44-5.75 724.14-29.95Q724.69-31 726.74-31ZM710.89 0.1Q710.19 0.7 709.34 0.7 708.49 0.7 708.04 0.18 707.59-0.35 707.59-0.75L707.59-0.75Q707.59-2.1 708.39-2.75 709.19-3.4 710.04-3.4 710.89-3.4 711.34-2.88 711.79-2.35 711.79-1.95 711.79-1.55 711.69-1.03 711.59-0.5 710.89 0.1Z" opacity="1" transform="matrix(1,0,0,1,0,0)" fill="#2d1b81" class="slogan-text-1" data-fill-palette-color="quaternary" id="text-1"></path></svg></g></svg></g></svg></g></svg></g><g transform="matrix(1,0,0,1,69.00720182701575,0)"><svg viewBox="0 0 75.14403757312562 68.78744224971923" height="68.78744224971923" width="75.14403757312562"><g><svg xmlns="http://www.w3.org/2000/svg" xmlns:xlink="http://www.w3.org/1999/xlink" version="1.1" x="0" y="0" viewBox="6.075000000000003 11.966 82.75 75.75000000000001" enable-background="new 0 0 100 100" xml:space="preserve" height="68.78744224971923" width="75.14403757312562" class="icon-icon-0" data-fill-palette-color="quaternary" id="icon-0"><path d="M82.325 11.966h-69.75c-3.584 0-6.5 2.916-6.5 6.5v62.75c0 3.584 2.916 6.5 6.5 6.5h69.75c3.584 0 6.5-2.916 6.5-6.5v-62.75C88.825 14.882 85.909 11.966 82.325 11.966zM27.7 82.716H12.575c-0.827 0-1.5-0.673-1.5-1.5v-44.75H27.7V82.716zM83.825 81.216c0 0.827-0.673 1.5-1.5 1.5H32.7v-46.25h51.125V81.216zM83.825 31.466h-72.75v-13c0-0.827 0.673-1.5 1.5-1.5h69.75c0.827 0 1.5 0.673 1.5 1.5V31.466zM76.951 20.633c-1.93 0-3.5 1.57-3.5 3.5s1.57 3.5 3.5 3.5 3.5-1.57 3.5-3.5S78.881 20.633 76.951 20.633zM66.951 20.633c-1.93 0-3.5 1.57-3.5 3.5s1.57 3.5 3.5 3.5 3.5-1.57 3.5-3.5S68.881 20.633 66.951 20.633zM56.951 20.633c-1.93 0-3.5 1.57-3.5 3.5s1.57 3.5 3.5 3.5 3.5-1.57 3.5-3.5S58.881 20.633 56.951 20.633z" fill="#2d1b81" data-fill-palette-color="quaternary"></path></svg></g></svg></g><g></g></svg></g></svg></g></svg></g><defs></defs></svg><rect width="342.85155851775386" height="342.85155851775386" fill="none" stroke="none" visibility="hidden"></rect></g></svg></g></svg>